<svg width="771" height="500" viewBox="0 0 771 500" fill="none" xmlns="http://www.w3.org/2000/svg">
<path d="M81 394V111C81 108.239 83.2386 106 86 106H560" stroke="#1E1E1E" stroke-width="10"/>
<path d="M366 78.8H368.4V73.2C368.4 69.6654 371.265 66.8 374.8 66.8H379.2V59.6V59C379.2 52.9249 384.125 48 390.2 48H390.8V27.5445H390.2C384.125 27.5445 379.2 22.6196 379.2 16.5445V14.8H366C362.465 14.8 359.6 11.9346 359.6 8.4C359.6 4.86538 362.465 2 366 2H398.2H430.4C433.935 2 436.8 4.86538 436.8 8.4C436.8 11.9346 433.935 14.8 430.4 14.8H417.2V16.5445C417.2 22.6196 412.275 27.5445 406.2 27.5445H405.6V48H406.2C412.275 48 417.2 52.9249 417.2 59V59.6V66.8H421.6C425.135 66.8 428 69.6654 428 73.2V78.8H430.4C433.935 78.8 436.8 81.6654 436.8 85.2V86H442C445.535 86 448.4 88.8654 448.4 92.4V117.6C448.4 121.135 445.535 124 442 124H436.8V127.2C436.8 130.735 433.935 133.6 430.4 133.6H398.2H366C362.465 133.6 359.6 130.735 359.6 127.2V124H354.4C350.865 124 348 121.135 348 117.6V92.4C348 88.8654 350.865 86 354.4 86H359.6V85.2C359.6 81.6654 362.465 78.8 366 78.8Z" fill="#1E1E1E"/>
<path d="M368.4 78.8H366C362.465 78.8 359.6 81.6654 359.6 85.2V86M368.4 78.8V73.2C368.4 69.6654 371.265 66.8 374.8 66.8H379.2M368.4 78.8H398.2H428M359.6 86H354.4C350.865 86 348 88.8654 348 92.4V117.6C348 121.135 350.865 124 354.4 124H359.6M359.6 86V124M359.6 124V127.2C359.6 130.735 362.465 133.6 366 133.6H398.2H430.4C433.935 133.6 436.8 130.735 436.8 127.2V124M379.2 66.8V59.6M379.2 66.8H398.2H417.2M379.2 66.8V59C379.2 52.9249 384.125 48 390.2 48H406.2C412.275 48 417.2 52.9249 417.2 59V66.8M379.2 14.8H366C362.465 14.8 359.6 11.9346 359.6 8.4C359.6 4.86538 362.465 2 366 2H398.2H430.4C433.935 2 436.8 4.86538 436.8 8.4C436.8 11.9346 433.935 14.8 430.4 14.8H417.2M379.2 14.8H398.2H417.2M379.2 14.8V16.5445C379.2 22.6196 384.125 27.5445 390.2 27.5445H406.2C412.275 27.5445 417.2 22.6196 417.2 16.5445V14.8M428 78.8H430.4C433.935 78.8 436.8 81.6654 436.8 85.2V86M428 78.8V73.2C428 69.6654 425.135 66.8 421.6 66.8H417.2M436.8 86H442C445.535 86 448.4 88.8654 448.4 92.4V117.6C448.4 121.135 445.535 124 442 124H436.8M436.8 86V124M417.2 66.8V59.6M390.8 48V27.5445H405.6V48H390.8Z" stroke="white" stroke-width="3"/>
<path d="M191 80H193.4V74.4C193.4 70.8654 196.265 68 199.8 68H204.2H223.2H242.2H246.6C250.135 68 253 70.8654 253 74.4V80H255.4C258.935 80 261.8 82.8654 261.8 86.4V87.2H267C270.535 87.2 273.4 90.0654 273.4 93.6V118.8C273.4 122.335 270.535 125.2 267 125.2H261.8V128.4C261.8 131.935 258.935 134.8 255.4 134.8H223.2H191C187.465 134.8 184.6 131.935 184.6 128.4V125.2H179.4C175.865 125.2 173 122.335 173 118.8V93.6C173 90.0654 175.865 87.2 179.4 87.2H184.6V86.4C184.6 82.8654 187.465 80 191 80Z" fill="#1E1E1E"/>
<path d="M193.4 80H191C187.465 80 184.6 82.8654 184.6 86.4V87.2M193.4 80V74.4C193.4 70.8654 196.265 68 199.8 68H204.2H223.2H242.2H246.6C250.135 68 253 70.8654 253 74.4V80M193.4 80H223.2H253M184.6 87.2H179.4C175.865 87.2 173 90.0654 173 93.6V118.8C173 122.335 175.865 125.2 179.4 125.2H184.6M184.6 87.2V125.2M184.6 125.2V128.4C184.6 131.935 187.465 134.8 191 134.8H223.2H255.4C258.935 134.8 261.8 131.935 261.8 128.4V125.2M253 80H255.4C258.935 80 261.8 82.8654 261.8 86.4V87.2M261.8 87.2H267C270.535 87.2 273.4 90.0654 273.4 93.6V118.8C273.4 122.335 270.535 125.2 267 125.2H261.8M261.8 87.2V125.2" stroke="white" stroke-width="3"/>
<path d="M369 368H771" stroke="#1E1E1E" stroke-width="10"/>
<rect x="2" y="323" width="368" height="175" rx="5" fill="#1E1E1E" stroke="white" stroke-width="3"/>
<path d="M104.5 316L104.5 322.5L57 322.5L57 316C57 311.582 60.5817 308 65 308L96.5 308C100.918 308 104.5 311.582 104.5 316Z" fill="#1E1E1E"/>
<path d="M104.5 322.5L105.5 322.5M104.5 322.5L104.5 316C104.5 311.582 100.918 308 96.5 308L65 308C60.5817 308 57 311.582 57 316L57 322.5L104.5 322.5Z" stroke="white" stroke-width="3"/>
<path d="M376.5 391.5L370 391.5L370 344L376.5 344C380.918 344 384.5 347.582 384.5 352L384.5 383.5C384.5 387.918 380.918 391.5 376.5 391.5Z" fill="#1E1E1E"/>
<path d="M370 391.5L370 392.5M370 391.5L376.5 391.5C380.918 391.5 384.5 387.918 384.5 383.5L384.5 352C384.5 347.582 380.918 344 376.5 344L370 344L370 391.5Z" stroke="white" stroke-width="3"/>
<rect x="23" y="343" width="176" height="136" rx="15" fill="white"/>
<rect x="23" y="343" width="176" height="136" rx="15" stroke="#1E1E1E"/>
<path d="M81 395.5V341" stroke="#1E1E1E" stroke-width="10"/>
<path d="M65.8994 463.819C49.9387 463.819 37 450.88 37 434.92C37 418.959 49.9387 406.02 65.8994 406.02H68.7126V398C68.7126 395.791 70.5035 394 72.7126 394H81.5H90.2874C92.4965 394 94.2874 395.791 94.2874 398V406.02H97.1006C113.061 406.02 126 418.959 126 434.92C126 450.88 113.061 463.819 97.1006 463.819H81.5H65.8994Z" fill="#1E1E1E"/>
<path d="M81.5 475.839H72.7126C70.5035 475.839 68.7126 474.048 68.7126 471.839V463.819H81.5H94.2874V471.839C94.2874 474.048 92.4965 475.839 90.2874 475.839H81.5Z" fill="#1E1E1E"/>
<path d="M81.5 463.819H65.8994C49.9387 463.819 37 450.88 37 434.92V434.92C37 418.959 49.9387 406.02 65.8994 406.02H68.7126M81.5 463.819H97.1006C113.061 463.819 126 450.88 126 434.92V434.92C126 418.959 113.061 406.02 97.1006 406.02H94.2874M81.5 463.819H68.7126V471.839C68.7126 474.048 70.5035 475.839 72.7126 475.839H81.5H90.2874C92.4965 475.839 94.2874 474.048 94.2874 471.839V463.819H81.5ZM68.7126 406.02H81.5H94.2874M68.7126 406.02V398C68.7126 395.791 70.5035 394 72.7126 394H81.5H90.2874C92.4965 394 94.2874 395.791 94.2874 398V406.02" stroke="white" stroke-width="3"/>
<path d="M98.7216 417.599L98.4959 420.082C98.4247 420.866 97.9099 421.54 97.1721 421.814L94.2992 422.884C93.6115 423.14 92.8394 423.008 92.2757 422.538L90.2824 420.877C89.4695 420.199 88.2742 420.254 87.5259 421.002L87.2748 421.253C86.5265 422.001 86.4723 423.197 87.1498 424.009L88.7358 425.913C89.2449 426.524 89.3539 427.374 89.0152 428.094L87.6255 431.046C87.3163 431.703 86.6824 432.147 85.9595 432.212L83.3607 432.449C82.3069 432.544 81.5 433.428 81.5 434.486V434.841C81.5 435.9 82.3069 436.783 83.3607 436.879L85.9184 437.111C86.6632 437.179 87.3118 437.648 87.6097 438.334L89.0681 441.691C89.3761 442.4 89.2582 443.222 88.7633 443.816L87.1498 445.753C86.4723 446.565 86.5265 447.761 87.2748 448.509L87.5259 448.76C88.2742 449.508 89.4695 449.563 90.2824 448.885L92.2233 447.268C92.8147 446.775 93.6328 446.656 94.3403 446.96L96.7478 447.993C97.4379 448.29 97.9102 448.94 97.9782 449.688L98.2101 452.24C98.306 453.294 99.1895 454.101 100.248 454.101H100.603C101.661 454.101 102.545 453.294 102.64 452.24L102.866 449.757C102.937 448.973 103.452 448.299 104.19 448.025L107.063 446.956C107.751 446.7 108.523 446.831 109.086 447.301L111.08 448.962C111.893 449.64 113.088 449.586 113.836 448.837L114.087 448.586C114.836 447.838 114.89 446.643 114.212 445.83L112.626 443.926C112.117 443.315 112.008 442.465 112.347 441.745L113.737 438.793C114.046 438.136 114.68 437.692 115.403 437.627L118.001 437.39C119.055 437.295 119.862 436.411 119.862 435.353V434.998C119.862 433.94 119.055 433.056 118.001 432.96L115.444 432.728C114.699 432.66 114.05 432.191 113.752 431.505L112.294 428.148C111.986 427.439 112.104 426.617 112.599 426.023L114.212 424.087C114.89 423.274 114.836 422.078 114.087 421.33L113.836 421.079C113.088 420.331 111.893 420.276 111.08 420.954L109.139 422.571C108.547 423.064 107.729 423.183 107.022 422.88L104.614 421.846C103.924 421.55 103.452 420.899 103.384 420.151L103.152 417.599C103.056 416.545 102.173 415.739 101.114 415.739H100.759C99.701 415.739 98.8174 416.545 98.7216 417.599Z" fill="white"/>
<path d="M94.7989 434.92C94.7989 438.168 97.4324 440.802 100.681 440.802C103.93 440.802 106.563 438.168 106.563 434.92C106.563 431.671 103.93 429.037 100.681 429.037C97.4324 429.037 94.7989 431.671 94.7989 434.92Z" fill="#1E1E1E"/>
<path d="M69.1936 418.179L68.0349 420.386C67.669 421.083 66.9357 421.508 66.1489 421.48L63.0856 421.368C62.3523 421.342 61.6894 420.924 61.3484 420.275L60.1425 417.977C59.6507 417.04 58.5256 416.633 57.548 417.038L57.2199 417.174C56.2422 417.579 55.7347 418.662 56.0495 419.673L56.7864 422.038C57.023 422.797 56.7981 423.625 56.2099 424.16L53.7961 426.356C53.2592 426.844 52.5037 427.011 51.8107 426.796L49.3193 426.019C48.3091 425.705 47.2254 426.212 46.8205 427.19L46.6846 427.518C46.2796 428.495 46.687 429.621 47.6239 430.112L49.8979 431.306C50.5601 431.654 50.9799 432.335 50.9927 433.083L51.0553 436.743C51.0685 437.515 50.6449 438.23 49.9605 438.589L47.7288 439.76C46.7918 440.252 46.3845 441.377 46.7894 442.355L46.9253 442.683C47.3303 443.661 48.4139 444.168 49.4242 443.854L51.8362 443.102C52.5713 442.873 53.3726 443.076 53.91 443.627L55.7387 445.504C56.2629 446.041 56.4503 446.823 56.2269 447.54L55.4646 449.987C55.1499 450.997 55.6574 452.081 56.635 452.485L56.9631 452.621C57.9408 453.026 59.0659 452.619 59.5577 451.682L60.7163 449.475C61.0822 448.777 61.8156 448.352 62.6023 448.381L65.6657 448.492C66.399 448.519 67.0618 448.936 67.4029 449.586L68.6088 451.883C69.1006 452.82 70.2257 453.228 71.2033 452.823L71.5314 452.687C72.509 452.282 73.0166 451.198 72.7018 450.188L71.9648 447.823C71.7283 447.063 71.9531 446.236 72.5414 445.701L74.9551 443.505C75.4921 443.017 76.2476 442.849 76.9405 443.065L79.4319 443.841C80.4422 444.156 81.5258 443.649 81.9308 442.671L82.0667 442.343C82.4716 441.365 82.0643 440.24 81.1273 439.748L78.8534 438.555C78.1911 438.207 77.7713 437.526 77.7586 436.778L77.696 433.118C77.6828 432.345 78.1063 431.631 78.7908 431.272L81.0225 430.1C81.9595 429.608 82.3668 428.483 81.9619 427.506L81.826 427.178C81.421 426.2 80.3374 425.692 79.3271 426.007L76.9151 426.759C76.18 426.988 75.3786 426.785 74.8413 426.233L73.0126 424.357C72.4884 423.819 72.301 423.037 72.5244 422.32L73.2866 419.874C73.6014 418.864 73.0939 417.78 72.1162 417.375L71.7881 417.239C70.8105 416.834 69.6854 417.242 69.1936 418.179Z" fill="white"/>
<path d="M58.9412 432.679C57.698 435.681 59.1233 439.122 62.1246 440.365C65.126 441.608 68.5669 440.183 69.8101 437.181C71.0533 434.18 69.628 430.739 66.6266 429.496C63.6253 428.253 60.1844 429.678 58.9412 432.679Z" fill="#1E1E1E"/>
<path d="M53.5 344.5H111" stroke="white" stroke-width="3"/>
<path d="M566 340.8H568.4V335.2C568.4 331.665 571.265 328.8 574.8 328.8H579.2V321.6V321C579.2 314.925 584.125 310 590.2 310H590.8V289.544H590.2C584.125 289.544 579.2 284.62 579.2 278.544V276.8H566C562.465 276.8 559.6 273.935 559.6 270.4C559.6 266.865 562.465 264 566 264H598.2H630.4C633.935 264 636.8 266.865 636.8 270.4C636.8 273.935 633.935 276.8 630.4 276.8H617.2V278.544C617.2 284.62 612.275 289.544 606.2 289.544H605.6V310H606.2C612.275 310 617.2 314.925 617.2 321V321.6V328.8H621.6C625.135 328.8 628 331.665 628 335.2V340.8H630.4C633.935 340.8 636.8 343.665 636.8 347.2V348H642C645.535 348 648.4 350.865 648.4 354.4V379.6C648.4 383.135 645.535 386 642 386H636.8V389.2C636.8 392.735 633.935 395.6 630.4 395.6H598.2H566C562.465 395.6 559.6 392.735 559.6 389.2V386H554.4C550.865 386 548 383.135 548 379.6V354.4C548 350.865 550.865 348 554.4 348H559.6V347.2C559.6 343.665 562.465 340.8 566 340.8Z" fill="#1E1E1E"/>
<path d="M568.4 340.8H566C562.465 340.8 559.6 343.665 559.6 347.2V348M568.4 340.8V335.2C568.4 331.665 571.265 328.8 574.8 328.8H579.2M568.4 340.8H598.2H628M559.6 348H554.4C550.865 348 548 350.865 548 354.4V379.6C548 383.135 550.865 386 554.4 386H559.6M559.6 348V386M559.6 386V389.2C559.6 392.735 562.465 395.6 566 395.6H598.2H630.4C633.935 395.6 636.8 392.735 636.8 389.2V386M579.2 328.8V321.6M579.2 328.8H598.2H617.2M579.2 328.8V321C579.2 314.925 584.125 310 590.2 310H606.2C612.275 310 617.2 314.925 617.2 321V328.8M579.2 276.8H566C562.465 276.8 559.6 273.935 559.6 270.4C559.6 266.865 562.465 264 566 264H598.2H630.4C633.935 264 636.8 266.865 636.8 270.4C636.8 273.935 633.935 276.8 630.4 276.8H617.2M579.2 276.8H598.2H617.2M579.2 276.8V278.544C579.2 284.62 584.125 289.544 590.2 289.544H606.2C612.275 289.544 617.2 284.62 617.2 278.544V276.8M628 340.8H630.4C633.935 340.8 636.8 343.665 636.8 347.2V348M628 340.8V335.2C628 331.665 625.135 328.8 621.6 328.8H617.2M636.8 348H642C645.535 348 648.4 350.865 648.4 354.4V379.6C648.4 383.135 645.535 386 642 386H636.8M636.8 348V386M617.2 328.8V321.6M590.8 310V289.544H605.6V310H590.8Z" stroke="white" stroke-width="3"/>
<path d="M480.5 355L439 368L480.5 381L464 368L480.5 355Z" fill="#1E1E1E"/>
<path d="M731.5 355L690 368L731.5 381L715 368L731.5 355Z" fill="#1E1E1E"/>
<path d="M485 119L526.5 106L485 93L501.5 106L485 119Z" fill="#1E1E1E"/>
<path d="M94 231.5L81 190L68 231.5L81 215L94 231.5Z" fill="#1E1E1E"/>
</svg>
